<svg width="646" height="646" viewBox="0 0 646 646" fill="none" xmlns="http://www.w3.org/2000/svg">
<circle cx="323" cy="323" r="322.5" fill="#122620" stroke="#D6AD60"/>
<path d="M330.585 74.0001L634 399.855H558.146L330.585 166.807L269.902 229.193L467.122 430.79L330.585 570L133.366 368.403L103.024 399.339H12L133.366 275.597L330.585 477.193L376.098 430.79L178.372 229.193L330.585 74.0001Z" fill="#B68D40"/>
<path d="M330.585 74.0001L634 399.855H558.146L330.585 166.807L269.902 229.193L467.122 430.79L330.585 570L133.366 368.403L103.024 399.339H12L133.366 275.597L330.585 477.193L376.098 430.79L178.372 229.193L330.585 74.0001Z" fill="url(#paint0_radial)"/>
<path d="M330.585 74.0001L634 399.855H558.146L330.585 166.807L269.902 229.193L467.122 430.79L330.585 570L133.366 368.403L103.024 399.339H12L133.366 275.597L330.585 477.193L376.098 430.79L178.372 229.193L330.585 74.0001Z" stroke="black"/>
<defs>
<radialGradient id="paint0_radial" cx="0" cy="0" r="1" gradientUnits="userSpaceOnUse" gradientTransform="translate(323 322) rotate(131.682) scale(244.361 306.437)">
<stop offset="0.122186" stop-color="#D6AD60"/>
<stop offset="0.661458" stop-color="white" stop-opacity="0"/>
</radialGradient>
</defs>
</svg>
